<mxfile host="app.diagrams.net" modified="2022-10-22T00:18:29.583Z" agent="5.0 (Windows)" etag="qNrFVwXb5ENTSREM1jkh" version="20.5.0" type="github">
  <diagram id="XyeKN5yPTKEU7CAuoB9q" name="Page-1">
    <mxGraphModel dx="1038" dy="1636" grid="1" gridSize="10" guides="1" tooltips="1" connect="1" arrows="1" fold="1" page="1" pageScale="1" pageWidth="850" pageHeight="1100" math="0" shadow="0">
      <root>
        <mxCell id="0" />
        <mxCell id="1" parent="0" />
        <mxCell id="4pyHOXLh5STAHHVh2ZcR-1" value="" style="endArrow=classic;html=1;rounded=0;fontSize=14;fontColor=#000000;exitX=0.5;exitY=1;exitDx=0;exitDy=0;entryX=0.893;entryY=1;entryDx=0;entryDy=0;entryPerimeter=0;edgeStyle=orthogonalEdgeStyle;strokeColor=#CC0000;" edge="1" parent="1" source="4pyHOXLh5STAHHVh2ZcR-69" target="4pyHOXLh5STAHHVh2ZcR-21">
          <mxGeometry width="50" height="50" relative="1" as="geometry">
            <mxPoint x="780" y="910" as="sourcePoint" />
            <mxPoint x="830" y="860" as="targetPoint" />
            <Array as="points">
              <mxPoint x="685" y="880" />
              <mxPoint x="1014" y="880" />
            </Array>
          </mxGeometry>
        </mxCell>
        <mxCell id="4pyHOXLh5STAHHVh2ZcR-2" value="&lt;b&gt;&lt;font style=&quot;font-size: 16px;&quot; color=&quot;#0000FF&quot;&gt;Student&lt;/font&gt;&lt;/b&gt;" style="ellipse;whiteSpace=wrap;html=1;fillColor=#dae8fc;strokeColor=#6c8ebf;" vertex="1" parent="1">
          <mxGeometry x="20" y="84" width="120" height="50" as="geometry" />
        </mxCell>
        <mxCell id="4pyHOXLh5STAHHVh2ZcR-3" value="&lt;b&gt;&lt;font style=&quot;font-size: 16px;&quot; color=&quot;#0000FF&quot;&gt;Stock manager&lt;/font&gt;&lt;/b&gt;" style="ellipse;whiteSpace=wrap;html=1;fillColor=#dae8fc;strokeColor=#6c8ebf;" vertex="1" parent="1">
          <mxGeometry x="591" y="-310" width="120" height="50" as="geometry" />
        </mxCell>
        <mxCell id="4pyHOXLh5STAHHVh2ZcR-4" value="&lt;b&gt;&lt;font style=&quot;font-size: 16px;&quot; color=&quot;#0000FF&quot;&gt;University Member&lt;/font&gt;&lt;/b&gt;" style="ellipse;whiteSpace=wrap;html=1;fillColor=#dae8fc;strokeColor=#6c8ebf;" vertex="1" parent="1">
          <mxGeometry x="81" y="773" width="120" height="50" as="geometry" />
        </mxCell>
        <mxCell id="4pyHOXLh5STAHHVh2ZcR-5" value="&lt;b&gt;&lt;font style=&quot;font-size: 16px;&quot; color=&quot;#0000FF&quot;&gt;Librarian&lt;/font&gt;&lt;/b&gt;" style="ellipse;whiteSpace=wrap;html=1;fillColor=#dae8fc;strokeColor=#6c8ebf;" vertex="1" parent="1">
          <mxGeometry x="30" y="364" width="120" height="50" as="geometry" />
        </mxCell>
        <mxCell id="4pyHOXLh5STAHHVh2ZcR-6" value="&lt;b&gt;&lt;font style=&quot;font-size: 16px;&quot; color=&quot;#0000FF&quot;&gt;Worker&lt;br&gt;&lt;/font&gt;&lt;/b&gt;" style="ellipse;whiteSpace=wrap;html=1;fillColor=#dae8fc;strokeColor=#6c8ebf;" vertex="1" parent="1">
          <mxGeometry x="50" y="630" width="120" height="50" as="geometry" />
        </mxCell>
        <mxCell id="4pyHOXLh5STAHHVh2ZcR-7" value="&lt;div align=&quot;left&quot;&gt;01&lt;/div&gt;" style="swimlane;fontStyle=1;align=left;verticalAlign=middle;childLayout=stackLayout;horizontal=1;startSize=29;horizontalStack=0;resizeParent=1;resizeParentMax=0;resizeLast=0;collapsible=0;marginBottom=0;html=1;fontSize=16;strokeWidth=2;fillColor=#fff2cc;strokeColor=#d6b656;" vertex="1" parent="1">
          <mxGeometry x="300" y="80" width="140" height="54" as="geometry" />
        </mxCell>
        <mxCell id="4pyHOXLh5STAHHVh2ZcR-8" value="&lt;div&gt;&lt;font color=&quot;#000000&quot;&gt;Borrow book&lt;/font&gt;&lt;/div&gt;" style="text;html=1;strokeColor=none;fillColor=none;align=left;verticalAlign=middle;spacingLeft=4;spacingRight=4;overflow=hidden;rotatable=0;points=[[0,0.5],[1,0.5]];portConstraint=eastwest;fontSize=16;fontColor=#0000FF;" vertex="1" parent="4pyHOXLh5STAHHVh2ZcR-7">
          <mxGeometry y="29" width="140" height="25" as="geometry" />
        </mxCell>
        <mxCell id="4pyHOXLh5STAHHVh2ZcR-9" value="" style="endArrow=classic;html=1;rounded=0;fontSize=16;fontColor=#0000FF;" edge="1" parent="1">
          <mxGeometry width="50" height="50" relative="1" as="geometry">
            <mxPoint x="140" y="110" as="sourcePoint" />
            <mxPoint x="300" y="110" as="targetPoint" />
          </mxGeometry>
        </mxCell>
        <mxCell id="4pyHOXLh5STAHHVh2ZcR-10" value="Book borrow requests" style="text;html=1;strokeColor=none;fillColor=none;align=center;verticalAlign=middle;whiteSpace=wrap;rounded=0;strokeWidth=2;fontSize=14;fontColor=#000000;" vertex="1" parent="1">
          <mxGeometry x="130" y="80" width="170" height="30" as="geometry" />
        </mxCell>
        <mxCell id="4pyHOXLh5STAHHVh2ZcR-11" value="" style="endArrow=classic;html=1;rounded=0;fontSize=14;fontColor=#000000;" edge="1" parent="1">
          <mxGeometry width="50" height="50" relative="1" as="geometry">
            <mxPoint x="130" y="120" as="sourcePoint" />
            <mxPoint x="250" y="180" as="targetPoint" />
          </mxGeometry>
        </mxCell>
        <mxCell id="4pyHOXLh5STAHHVh2ZcR-12" value="&lt;div align=&quot;left&quot;&gt;05&lt;/div&gt;" style="swimlane;fontStyle=1;align=left;verticalAlign=middle;childLayout=stackLayout;horizontal=1;startSize=29;horizontalStack=0;resizeParent=1;resizeParentMax=0;resizeLast=0;collapsible=0;marginBottom=0;html=1;fontSize=16;strokeWidth=2;fillColor=#fff2cc;strokeColor=#d6b656;" vertex="1" parent="1">
          <mxGeometry x="250" y="170" width="140" height="54" as="geometry" />
        </mxCell>
        <mxCell id="4pyHOXLh5STAHHVh2ZcR-13" value="&lt;div&gt;&lt;font color=&quot;#000000&quot;&gt;Return book&lt;/font&gt;&lt;/div&gt;" style="text;html=1;strokeColor=none;fillColor=none;align=left;verticalAlign=middle;spacingLeft=4;spacingRight=4;overflow=hidden;rotatable=0;points=[[0,0.5],[1,0.5]];portConstraint=eastwest;fontSize=16;fontColor=#0000FF;" vertex="1" parent="4pyHOXLh5STAHHVh2ZcR-12">
          <mxGeometry y="29" width="140" height="25" as="geometry" />
        </mxCell>
        <mxCell id="4pyHOXLh5STAHHVh2ZcR-14" value="&lt;div align=&quot;left&quot;&gt;02&lt;/div&gt;" style="swimlane;fontStyle=1;align=left;verticalAlign=middle;childLayout=stackLayout;horizontal=1;startSize=29;horizontalStack=0;resizeParent=1;resizeParentMax=0;resizeLast=0;collapsible=0;marginBottom=0;html=1;fontSize=16;strokeWidth=2;fillColor=#fff2cc;strokeColor=#d6b656;" vertex="1" parent="1">
          <mxGeometry x="580" y="70" width="140" height="54" as="geometry" />
        </mxCell>
        <mxCell id="4pyHOXLh5STAHHVh2ZcR-15" value="&lt;div&gt;&lt;font color=&quot;#000000&quot;&gt;Search of book&lt;/font&gt;&lt;/div&gt;" style="text;html=1;strokeColor=none;fillColor=none;align=left;verticalAlign=middle;spacingLeft=4;spacingRight=4;overflow=hidden;rotatable=0;points=[[0,0.5],[1,0.5]];portConstraint=eastwest;fontSize=16;fontColor=#0000FF;" vertex="1" parent="4pyHOXLh5STAHHVh2ZcR-14">
          <mxGeometry y="29" width="140" height="25" as="geometry" />
        </mxCell>
        <mxCell id="4pyHOXLh5STAHHVh2ZcR-16" value="" style="endArrow=classic;html=1;rounded=0;fontSize=14;fontColor=#000000;entryX=-0.014;entryY=0.28;entryDx=0;entryDy=0;exitX=1;exitY=0.5;exitDx=0;exitDy=0;entryPerimeter=0;" edge="1" parent="1" source="4pyHOXLh5STAHHVh2ZcR-7" target="4pyHOXLh5STAHHVh2ZcR-15">
          <mxGeometry width="50" height="50" relative="1" as="geometry">
            <mxPoint x="440" y="120" as="sourcePoint" />
            <mxPoint x="490" y="70" as="targetPoint" />
          </mxGeometry>
        </mxCell>
        <mxCell id="4pyHOXLh5STAHHVh2ZcR-17" value="Book name" style="text;html=1;strokeColor=none;fillColor=none;align=center;verticalAlign=middle;whiteSpace=wrap;rounded=0;strokeWidth=2;fontSize=14;fontColor=#000000;" vertex="1" parent="1">
          <mxGeometry x="470" y="80" width="90" height="30" as="geometry" />
        </mxCell>
        <mxCell id="4pyHOXLh5STAHHVh2ZcR-18" value="" style="endArrow=classic;html=1;rounded=0;fontSize=14;fontColor=#000000;entryX=0.443;entryY=-0.056;entryDx=0;entryDy=0;entryPerimeter=0;" edge="1" parent="1" target="4pyHOXLh5STAHHVh2ZcR-14">
          <mxGeometry width="50" height="50" relative="1" as="geometry">
            <mxPoint x="640" y="-260" as="sourcePoint" />
            <mxPoint x="480" y="-20" as="targetPoint" />
          </mxGeometry>
        </mxCell>
        <mxCell id="4pyHOXLh5STAHHVh2ZcR-19" value="" style="endArrow=classic;html=1;rounded=0;fontSize=14;fontColor=#000000;entryX=0;entryY=0.5;entryDx=0;entryDy=0;exitX=1;exitY=0.5;exitDx=0;exitDy=0;" edge="1" parent="1">
          <mxGeometry width="50" height="50" relative="1" as="geometry">
            <mxPoint x="720" y="87" as="sourcePoint" />
            <mxPoint x="880" y="85" as="targetPoint" />
          </mxGeometry>
        </mxCell>
        <mxCell id="4pyHOXLh5STAHHVh2ZcR-20" value="Book name" style="text;html=1;strokeColor=none;fillColor=none;align=center;verticalAlign=middle;whiteSpace=wrap;rounded=0;strokeWidth=2;fontSize=14;fontColor=#000000;rotation=-90;" vertex="1" parent="1">
          <mxGeometry x="580" y="-90" width="90" height="30" as="geometry" />
        </mxCell>
        <mxCell id="4pyHOXLh5STAHHVh2ZcR-21" value="D1" style="html=1;dashed=0;whitespace=wrap;shape=mxgraph.dfd.dataStoreID;align=left;spacingLeft=3;points=[[0,0],[0.5,0],[1,0],[0,0.5],[1,0.5],[0,1],[0.5,1],[1,1]];strokeWidth=2;fontSize=14;fillColor=#f8cecc;strokeColor=#b85450;" vertex="1" parent="1">
          <mxGeometry x="880" y="80" width="150" height="30" as="geometry" />
        </mxCell>
        <mxCell id="4pyHOXLh5STAHHVh2ZcR-22" value="Book" style="text;html=1;strokeColor=none;fillColor=none;align=center;verticalAlign=middle;whiteSpace=wrap;rounded=0;strokeWidth=2;fontSize=14;fontColor=#000000;" vertex="1" parent="1">
          <mxGeometry x="930" y="80" width="60" height="30" as="geometry" />
        </mxCell>
        <mxCell id="4pyHOXLh5STAHHVh2ZcR-23" value="display" style="text;html=1;strokeColor=none;fillColor=none;align=center;verticalAlign=middle;whiteSpace=wrap;rounded=0;strokeWidth=2;fontSize=14;fontColor=#000000;" vertex="1" parent="1">
          <mxGeometry x="770" y="61" width="60" height="30" as="geometry" />
        </mxCell>
        <mxCell id="4pyHOXLh5STAHHVh2ZcR-24" value="book name and student id" style="text;html=1;strokeColor=none;fillColor=none;align=center;verticalAlign=middle;whiteSpace=wrap;rounded=0;strokeWidth=2;fontSize=14;fontColor=#000000;rotation=30;" vertex="1" parent="1">
          <mxGeometry x="130" y="150" width="90" height="30" as="geometry" />
        </mxCell>
        <mxCell id="4pyHOXLh5STAHHVh2ZcR-25" value="&lt;div align=&quot;left&quot;&gt;03&lt;/div&gt;" style="swimlane;fontStyle=1;align=left;verticalAlign=middle;childLayout=stackLayout;horizontal=1;startSize=29;horizontalStack=0;resizeParent=1;resizeParentMax=0;resizeLast=0;collapsible=0;marginBottom=0;html=1;fontSize=16;strokeWidth=2;fillColor=#fff2cc;strokeColor=#d6b656;" vertex="1" parent="1">
          <mxGeometry x="900" y="-314" width="230" height="54" as="geometry" />
        </mxCell>
        <mxCell id="4pyHOXLh5STAHHVh2ZcR-26" value="&lt;font color=&quot;#000000&quot;&gt;Checking borrowing requests&lt;/font&gt;" style="text;html=1;strokeColor=none;fillColor=none;align=left;verticalAlign=middle;spacingLeft=4;spacingRight=4;overflow=hidden;rotatable=0;points=[[0,0.5],[1,0.5]];portConstraint=eastwest;fontSize=16;fontColor=#0000FF;" vertex="1" parent="4pyHOXLh5STAHHVh2ZcR-25">
          <mxGeometry y="29" width="230" height="25" as="geometry" />
        </mxCell>
        <mxCell id="4pyHOXLh5STAHHVh2ZcR-74" value="" style="endArrow=none;html=1;rounded=0;" edge="1" parent="4pyHOXLh5STAHHVh2ZcR-25">
          <mxGeometry width="50" height="50" relative="1" as="geometry">
            <mxPoint x="39" y="29" as="sourcePoint" />
            <mxPoint x="39" y="-1" as="targetPoint" />
          </mxGeometry>
        </mxCell>
        <mxCell id="4pyHOXLh5STAHHVh2ZcR-27" value="" style="endArrow=classic;html=1;rounded=0;fontSize=14;fontColor=#000000;entryX=-0.013;entryY=0.04;entryDx=0;entryDy=0;exitX=1;exitY=0.5;exitDx=0;exitDy=0;entryPerimeter=0;" edge="1" parent="1" source="4pyHOXLh5STAHHVh2ZcR-3" target="4pyHOXLh5STAHHVh2ZcR-26">
          <mxGeometry width="50" height="50" relative="1" as="geometry">
            <mxPoint x="790" y="-240" as="sourcePoint" />
            <mxPoint x="840" y="-290" as="targetPoint" />
          </mxGeometry>
        </mxCell>
        <mxCell id="4pyHOXLh5STAHHVh2ZcR-28" value="Borrow information" style="text;html=1;strokeColor=none;fillColor=none;align=center;verticalAlign=middle;whiteSpace=wrap;rounded=0;strokeWidth=2;fontSize=14;fontColor=#000000;" vertex="1" parent="1">
          <mxGeometry x="720" y="-310" width="170" height="30" as="geometry" />
        </mxCell>
        <mxCell id="4pyHOXLh5STAHHVh2ZcR-29" value="" style="endArrow=classic;html=1;fontFamily=Helvetica;fontSize=14;fontColor=#000000;align=center;strokeColor=default;" edge="1" parent="1">
          <mxGeometry width="50" height="50" relative="1" as="geometry">
            <mxPoint x="1132.0700000000002" y="-299" as="sourcePoint" />
            <mxPoint x="1280" y="-299" as="targetPoint" />
          </mxGeometry>
        </mxCell>
        <mxCell id="4pyHOXLh5STAHHVh2ZcR-30" value="display" style="text;html=1;strokeColor=none;fillColor=none;align=center;verticalAlign=middle;whiteSpace=wrap;rounded=0;strokeWidth=2;fontSize=14;fontColor=#000000;" vertex="1" parent="1">
          <mxGeometry x="1160" y="-328" width="60" height="30" as="geometry" />
        </mxCell>
        <mxCell id="4pyHOXLh5STAHHVh2ZcR-31" value="D2" style="html=1;dashed=0;whitespace=wrap;shape=mxgraph.dfd.dataStoreID;align=left;spacingLeft=3;points=[[0,0],[0.5,0],[1,0],[0,0.5],[1,0.5],[0,1],[0.5,1],[1,1]];strokeWidth=2;fontSize=14;fillColor=#f8cecc;strokeColor=#b85450;" vertex="1" parent="1">
          <mxGeometry x="1280" y="-307" width="270" height="30" as="geometry" />
        </mxCell>
        <mxCell id="4pyHOXLh5STAHHVh2ZcR-32" value="&lt;font color=&quot;#000000&quot;&gt;Borrowing requests&lt;/font&gt;" style="text;html=1;strokeColor=none;fillColor=none;align=center;verticalAlign=middle;whiteSpace=wrap;rounded=0;strokeWidth=2;fontSize=14;fontColor=#000000;" vertex="1" parent="1">
          <mxGeometry x="1330" y="-308" width="180" height="30" as="geometry" />
        </mxCell>
        <mxCell id="4pyHOXLh5STAHHVh2ZcR-33" value="&lt;div align=&quot;left&quot;&gt;04&lt;/div&gt;" style="swimlane;fontStyle=1;align=left;verticalAlign=middle;childLayout=stackLayout;horizontal=1;startSize=29;horizontalStack=0;resizeParent=1;resizeParentMax=0;resizeLast=0;collapsible=0;marginBottom=0;html=1;fontSize=16;strokeWidth=2;fillColor=#fff2cc;strokeColor=#d6b656;" vertex="1" parent="1">
          <mxGeometry x="890" y="-160" width="230" height="54" as="geometry" />
        </mxCell>
        <mxCell id="4pyHOXLh5STAHHVh2ZcR-34" value="&lt;font color=&quot;#000000&quot;&gt;Update library files&lt;/font&gt;" style="text;html=1;strokeColor=none;fillColor=none;align=left;verticalAlign=middle;spacingLeft=4;spacingRight=4;overflow=hidden;rotatable=0;points=[[0,0.5],[1,0.5]];portConstraint=eastwest;fontSize=16;fontColor=#0000FF;" vertex="1" parent="4pyHOXLh5STAHHVh2ZcR-33">
          <mxGeometry y="29" width="230" height="25" as="geometry" />
        </mxCell>
        <mxCell id="4pyHOXLh5STAHHVh2ZcR-35" value="" style="endArrow=classic;html=1;rounded=0;fontSize=14;fontColor=#000000;entryX=0;entryY=0.5;entryDx=0;entryDy=0;exitX=0.725;exitY=0.94;exitDx=0;exitDy=0;exitPerimeter=0;" edge="1" parent="1" source="4pyHOXLh5STAHHVh2ZcR-3" target="4pyHOXLh5STAHHVh2ZcR-33">
          <mxGeometry width="50" height="50" relative="1" as="geometry">
            <mxPoint x="780" y="-170" as="sourcePoint" />
            <mxPoint x="830" y="-220" as="targetPoint" />
          </mxGeometry>
        </mxCell>
        <mxCell id="4pyHOXLh5STAHHVh2ZcR-36" value="Book status " style="text;html=1;strokeColor=none;fillColor=none;align=center;verticalAlign=middle;whiteSpace=wrap;rounded=0;strokeWidth=2;fontSize=14;fontColor=#000000;rotation=30;" vertex="1" parent="1">
          <mxGeometry x="735.5" y="-217" width="139" height="30" as="geometry" />
        </mxCell>
        <mxCell id="4pyHOXLh5STAHHVh2ZcR-37" value="" style="endArrow=classic;html=1;rounded=0;fontSize=14;fontColor=#000000;entryX=0.089;entryY=1.067;entryDx=0;entryDy=0;entryPerimeter=0;" edge="1" parent="1" target="4pyHOXLh5STAHHVh2ZcR-31">
          <mxGeometry width="50" height="50" relative="1" as="geometry">
            <mxPoint x="1120" y="-150" as="sourcePoint" />
            <mxPoint x="1170" y="-200" as="targetPoint" />
          </mxGeometry>
        </mxCell>
        <mxCell id="4pyHOXLh5STAHHVh2ZcR-38" value="" style="endArrow=classic;html=1;rounded=0;fontSize=14;fontColor=#000000;exitX=0.465;exitY=1.04;exitDx=0;exitDy=0;exitPerimeter=0;entryX=0.787;entryY=-0.067;entryDx=0;entryDy=0;entryPerimeter=0;" edge="1" parent="1" source="4pyHOXLh5STAHHVh2ZcR-34" target="4pyHOXLh5STAHHVh2ZcR-21">
          <mxGeometry width="50" height="50" relative="1" as="geometry">
            <mxPoint x="840" as="sourcePoint" />
            <mxPoint x="890" y="-50" as="targetPoint" />
          </mxGeometry>
        </mxCell>
        <mxCell id="4pyHOXLh5STAHHVh2ZcR-39" value="&lt;font color=&quot;#000000&quot;&gt;Borrowing requests &lt;/font&gt;information " style="text;html=1;strokeColor=none;fillColor=none;align=center;verticalAlign=middle;whiteSpace=wrap;rounded=0;strokeWidth=2;fontSize=14;fontColor=#000000;rotation=-30;" vertex="1" parent="1">
          <mxGeometry x="1095.5" y="-237" width="197.5" height="40" as="geometry" />
        </mxCell>
        <mxCell id="4pyHOXLh5STAHHVh2ZcR-40" value="book information " style="text;html=1;strokeColor=none;fillColor=none;align=center;verticalAlign=middle;whiteSpace=wrap;rounded=0;strokeWidth=2;fontSize=14;fontColor=#000000;rotation=0;" vertex="1" parent="1">
          <mxGeometry x="570" y="160" width="130" height="30" as="geometry" />
        </mxCell>
        <mxCell id="4pyHOXLh5STAHHVh2ZcR-41" value="" style="endArrow=classic;html=1;rounded=0;fontSize=14;fontColor=#000000;entryX=1.004;entryY=0.24;entryDx=0;entryDy=0;entryPerimeter=0;" edge="1" parent="1" target="4pyHOXLh5STAHHVh2ZcR-26">
          <mxGeometry width="50" height="50" relative="1" as="geometry">
            <mxPoint x="1280" y="-280" as="sourcePoint" />
            <mxPoint x="1190" y="-270" as="targetPoint" />
          </mxGeometry>
        </mxCell>
        <mxCell id="4pyHOXLh5STAHHVh2ZcR-42" value="&lt;font color=&quot;#000000&quot;&gt;Borrowing request&lt;/font&gt;s" style="text;html=1;strokeColor=none;fillColor=none;align=center;verticalAlign=middle;whiteSpace=wrap;rounded=0;strokeWidth=2;fontSize=14;fontColor=#000000;" vertex="1" parent="1">
          <mxGeometry x="1140" y="-302" width="150" height="30" as="geometry" />
        </mxCell>
        <mxCell id="4pyHOXLh5STAHHVh2ZcR-43" value="" style="endArrow=classic;html=1;rounded=0;fontSize=14;fontColor=#000000;exitX=0;exitY=1;exitDx=0;exitDy=0;entryX=1;entryY=0.5;entryDx=0;entryDy=0;" edge="1" parent="1" source="4pyHOXLh5STAHHVh2ZcR-21" target="4pyHOXLh5STAHHVh2ZcR-15">
          <mxGeometry width="50" height="50" relative="1" as="geometry">
            <mxPoint x="750" y="180" as="sourcePoint" />
            <mxPoint x="800" y="130" as="targetPoint" />
          </mxGeometry>
        </mxCell>
        <mxCell id="4pyHOXLh5STAHHVh2ZcR-44" value="Book details" style="text;html=1;strokeColor=none;fillColor=none;align=center;verticalAlign=middle;whiteSpace=wrap;rounded=0;strokeWidth=2;fontSize=14;fontColor=#000000;" vertex="1" parent="1">
          <mxGeometry x="760" y="88" width="85" height="30" as="geometry" />
        </mxCell>
        <mxCell id="4pyHOXLh5STAHHVh2ZcR-45" value="" style="endArrow=classic;html=1;rounded=0;fontSize=14;fontColor=#000000;entryX=0.167;entryY=1;entryDx=0;entryDy=0;entryPerimeter=0;exitX=1;exitY=0.5;exitDx=0;exitDy=0;edgeStyle=orthogonalEdgeStyle;" edge="1" parent="1" source="4pyHOXLh5STAHHVh2ZcR-12" target="4pyHOXLh5STAHHVh2ZcR-22">
          <mxGeometry width="50" height="50" relative="1" as="geometry">
            <mxPoint x="400" y="230" as="sourcePoint" />
            <mxPoint x="940" y="120" as="targetPoint" />
            <Array as="points">
              <mxPoint x="390" y="190" />
              <mxPoint x="940" y="190" />
            </Array>
          </mxGeometry>
        </mxCell>
        <mxCell id="4pyHOXLh5STAHHVh2ZcR-46" value="book information " style="text;html=1;strokeColor=none;fillColor=none;align=center;verticalAlign=middle;whiteSpace=wrap;rounded=0;strokeWidth=2;fontSize=14;fontColor=#000000;rotation=-90;" vertex="1" parent="1">
          <mxGeometry x="919" y="-30" width="130" height="30" as="geometry" />
        </mxCell>
        <mxCell id="4pyHOXLh5STAHHVh2ZcR-47" value="" style="endArrow=classic;html=1;rounded=0;fontSize=14;fontColor=#000000;entryX=0.85;entryY=1.1;entryDx=0;entryDy=0;entryPerimeter=0;exitX=1;exitY=0.5;exitDx=0;exitDy=0;edgeStyle=orthogonalEdgeStyle;" edge="1" parent="1" source="4pyHOXLh5STAHHVh2ZcR-13" target="4pyHOXLh5STAHHVh2ZcR-32">
          <mxGeometry width="50" height="50" relative="1" as="geometry">
            <mxPoint x="560" y="290" as="sourcePoint" />
            <mxPoint x="610" y="240" as="targetPoint" />
          </mxGeometry>
        </mxCell>
        <mxCell id="4pyHOXLh5STAHHVh2ZcR-48" value="&lt;font color=&quot;#000000&quot;&gt;Borrowing requests &lt;/font&gt;information " style="text;html=1;strokeColor=none;fillColor=none;align=center;verticalAlign=middle;whiteSpace=wrap;rounded=0;strokeWidth=2;fontSize=14;fontColor=#000000;rotation=0;" vertex="1" parent="1">
          <mxGeometry x="447" y="186" width="370" height="30" as="geometry" />
        </mxCell>
        <mxCell id="4pyHOXLh5STAHHVh2ZcR-49" value="&lt;div align=&quot;left&quot;&gt;06&lt;/div&gt;" style="swimlane;fontStyle=1;align=left;verticalAlign=middle;childLayout=stackLayout;horizontal=1;startSize=29;horizontalStack=0;resizeParent=1;resizeParentMax=0;resizeLast=0;collapsible=0;marginBottom=0;html=1;fontSize=16;strokeWidth=2;fillColor=#fff2cc;strokeColor=#d6b656;" vertex="1" parent="1">
          <mxGeometry x="319" y="360" width="270" height="54" as="geometry" />
        </mxCell>
        <mxCell id="4pyHOXLh5STAHHVh2ZcR-50" value="&lt;font color=&quot;#000000&quot;&gt;Verification of library members&lt;/font&gt;" style="text;html=1;strokeColor=none;fillColor=none;align=left;verticalAlign=middle;spacingLeft=4;spacingRight=4;overflow=hidden;rotatable=0;points=[[0,0.5],[1,0.5]];portConstraint=eastwest;fontSize=16;fontColor=#0000FF;" vertex="1" parent="4pyHOXLh5STAHHVh2ZcR-49">
          <mxGeometry y="29" width="270" height="25" as="geometry" />
        </mxCell>
        <mxCell id="4pyHOXLh5STAHHVh2ZcR-51" value="" style="endArrow=classic;html=1;rounded=0;fontSize=14;fontColor=#000000;exitX=1;exitY=0.5;exitDx=0;exitDy=0;entryX=-0.004;entryY=0.12;entryDx=0;entryDy=0;entryPerimeter=0;" edge="1" parent="1" source="4pyHOXLh5STAHHVh2ZcR-5" target="4pyHOXLh5STAHHVh2ZcR-50">
          <mxGeometry width="50" height="50" relative="1" as="geometry">
            <mxPoint x="190" y="410" as="sourcePoint" />
            <mxPoint x="310" y="390" as="targetPoint" />
          </mxGeometry>
        </mxCell>
        <mxCell id="4pyHOXLh5STAHHVh2ZcR-52" value="&lt;font color=&quot;#000000&quot;&gt;ID member&lt;/font&gt;" style="text;html=1;strokeColor=none;fillColor=none;align=center;verticalAlign=middle;whiteSpace=wrap;rounded=0;strokeWidth=2;fontSize=14;fontColor=#000000;" vertex="1" parent="1">
          <mxGeometry x="170" y="359" width="120" height="30" as="geometry" />
        </mxCell>
        <mxCell id="4pyHOXLh5STAHHVh2ZcR-53" value="&lt;div align=&quot;left&quot;&gt;D3&lt;/div&gt;" style="html=1;dashed=0;whitespace=wrap;shape=mxgraph.dfd.dataStoreID;align=left;spacingLeft=3;points=[[0,0],[0.5,0],[1,0],[0,0.5],[1,0.5],[0,1],[0.5,1],[1,1]];strokeWidth=2;fontSize=14;fillColor=#f8cecc;strokeColor=#b85450;" vertex="1" parent="1">
          <mxGeometry x="760" y="372" width="200" height="30" as="geometry" />
        </mxCell>
        <mxCell id="4pyHOXLh5STAHHVh2ZcR-54" value="&lt;font color=&quot;#000000&quot;&gt;Library Members&lt;/font&gt;" style="text;html=1;strokeColor=none;fillColor=none;align=center;verticalAlign=middle;whiteSpace=wrap;rounded=0;strokeWidth=2;fontSize=14;fontColor=#000000;" vertex="1" parent="1">
          <mxGeometry x="790" y="374" width="150" height="30" as="geometry" />
        </mxCell>
        <mxCell id="4pyHOXLh5STAHHVh2ZcR-55" value="" style="endArrow=classic;html=1;rounded=0;fontSize=14;fontColor=#000000;entryX=-0.02;entryY=0.3;entryDx=0;entryDy=0;entryPerimeter=0;exitX=1.007;exitY=0.389;exitDx=0;exitDy=0;exitPerimeter=0;" edge="1" parent="1" source="4pyHOXLh5STAHHVh2ZcR-49" target="4pyHOXLh5STAHHVh2ZcR-53">
          <mxGeometry width="50" height="50" relative="1" as="geometry">
            <mxPoint x="650" y="420" as="sourcePoint" />
            <mxPoint x="700" y="370" as="targetPoint" />
          </mxGeometry>
        </mxCell>
        <mxCell id="4pyHOXLh5STAHHVh2ZcR-56" value="&lt;font color=&quot;#000000&quot;&gt;ID member&lt;/font&gt;" style="text;html=1;strokeColor=none;fillColor=none;align=center;verticalAlign=middle;whiteSpace=wrap;rounded=0;strokeWidth=2;fontSize=14;fontColor=#000000;" vertex="1" parent="1">
          <mxGeometry x="610" y="359" width="120" height="30" as="geometry" />
        </mxCell>
        <mxCell id="4pyHOXLh5STAHHVh2ZcR-57" value="" style="endArrow=classic;html=1;rounded=0;fontSize=14;fontColor=#000000;exitX=0;exitY=1;exitDx=0;exitDy=0;entryX=1;entryY=0.5;entryDx=0;entryDy=0;" edge="1" parent="1" source="4pyHOXLh5STAHHVh2ZcR-53" target="4pyHOXLh5STAHHVh2ZcR-50">
          <mxGeometry width="50" height="50" relative="1" as="geometry">
            <mxPoint x="630" y="470" as="sourcePoint" />
            <mxPoint x="680" y="420" as="targetPoint" />
          </mxGeometry>
        </mxCell>
        <mxCell id="4pyHOXLh5STAHHVh2ZcR-58" value="Member Status" style="text;html=1;strokeColor=none;fillColor=none;align=center;verticalAlign=middle;whiteSpace=wrap;rounded=0;strokeWidth=2;fontSize=14;fontColor=#000000;" vertex="1" parent="1">
          <mxGeometry x="572" y="378" width="210" height="30" as="geometry" />
        </mxCell>
        <mxCell id="4pyHOXLh5STAHHVh2ZcR-59" value="" style="endArrow=classic;html=1;rounded=0;fontSize=14;fontColor=#000000;" edge="1" parent="1" source="4pyHOXLh5STAHHVh2ZcR-5">
          <mxGeometry width="50" height="50" relative="1" as="geometry">
            <mxPoint x="230" y="520" as="sourcePoint" />
            <mxPoint x="280" y="490" as="targetPoint" />
          </mxGeometry>
        </mxCell>
        <mxCell id="4pyHOXLh5STAHHVh2ZcR-60" value="member informations" style="text;html=1;strokeColor=none;fillColor=none;align=center;verticalAlign=middle;whiteSpace=wrap;rounded=0;strokeWidth=2;fontSize=14;fontColor=#000000;rotation=30;" vertex="1" parent="1">
          <mxGeometry x="130" y="422" width="170" height="30" as="geometry" />
        </mxCell>
        <mxCell id="4pyHOXLh5STAHHVh2ZcR-61" value="&lt;div align=&quot;left&quot;&gt;07&lt;/div&gt;" style="swimlane;fontStyle=1;align=left;verticalAlign=middle;childLayout=stackLayout;horizontal=1;startSize=29;horizontalStack=0;resizeParent=1;resizeParentMax=0;resizeLast=0;collapsible=0;marginBottom=0;html=1;fontSize=16;strokeWidth=2;fillColor=#fff2cc;strokeColor=#d6b656;" vertex="1" parent="1">
          <mxGeometry x="290" y="470" width="270" height="54" as="geometry" />
        </mxCell>
        <mxCell id="4pyHOXLh5STAHHVh2ZcR-62" value="&lt;font color=&quot;#000000&quot;&gt;Add new member&lt;/font&gt;" style="text;html=1;strokeColor=none;fillColor=none;align=left;verticalAlign=middle;spacingLeft=4;spacingRight=4;overflow=hidden;rotatable=0;points=[[0,0.5],[1,0.5]];portConstraint=eastwest;fontSize=16;fontColor=#0000FF;" vertex="1" parent="4pyHOXLh5STAHHVh2ZcR-61">
          <mxGeometry y="29" width="270" height="25" as="geometry" />
        </mxCell>
        <mxCell id="4pyHOXLh5STAHHVh2ZcR-63" value="" style="endArrow=classic;html=1;rounded=0;fontSize=14;fontColor=#000000;entryX=0.2;entryY=1.1;entryDx=0;entryDy=0;entryPerimeter=0;exitX=1.007;exitY=0;exitDx=0;exitDy=0;exitPerimeter=0;" edge="1" parent="1" source="4pyHOXLh5STAHHVh2ZcR-62" target="4pyHOXLh5STAHHVh2ZcR-54">
          <mxGeometry width="50" height="50" relative="1" as="geometry">
            <mxPoint x="570" y="520" as="sourcePoint" />
            <mxPoint x="620" y="470" as="targetPoint" />
          </mxGeometry>
        </mxCell>
        <mxCell id="4pyHOXLh5STAHHVh2ZcR-64" value="&lt;font color=&quot;#000000&quot;&gt;new member&lt;/font&gt;" style="text;html=1;strokeColor=none;fillColor=none;align=center;verticalAlign=middle;whiteSpace=wrap;rounded=0;strokeWidth=2;fontSize=14;fontColor=#000000;rotation=-20;" vertex="1" parent="1">
          <mxGeometry x="554" y="440" width="194" height="30" as="geometry" />
        </mxCell>
        <mxCell id="4pyHOXLh5STAHHVh2ZcR-65" value="&lt;div align=&quot;left&quot;&gt;08&lt;/div&gt;" style="swimlane;fontStyle=1;align=left;verticalAlign=middle;childLayout=stackLayout;horizontal=1;startSize=29;horizontalStack=0;resizeParent=1;resizeParentMax=0;resizeLast=0;collapsible=0;marginBottom=0;html=1;fontSize=16;strokeWidth=2;fillColor=#fff2cc;strokeColor=#d6b656;" vertex="1" parent="1">
          <mxGeometry x="550" y="620" width="270" height="54" as="geometry" />
        </mxCell>
        <mxCell id="4pyHOXLh5STAHHVh2ZcR-66" value="&lt;font color=&quot;#000000&quot;&gt;Return book to place&lt;/font&gt;" style="text;html=1;strokeColor=none;fillColor=none;align=left;verticalAlign=middle;spacingLeft=4;spacingRight=4;overflow=hidden;rotatable=0;points=[[0,0.5],[1,0.5]];portConstraint=eastwest;fontSize=16;fontColor=#0000FF;" vertex="1" parent="4pyHOXLh5STAHHVh2ZcR-65">
          <mxGeometry y="29" width="270" height="25" as="geometry" />
        </mxCell>
        <mxCell id="4pyHOXLh5STAHHVh2ZcR-67" value="" style="endArrow=classic;html=1;rounded=0;fontSize=14;fontColor=#000000;entryX=0;entryY=0.08;entryDx=0;entryDy=0;entryPerimeter=0;exitX=1;exitY=0.5;exitDx=0;exitDy=0;" edge="1" parent="1" source="4pyHOXLh5STAHHVh2ZcR-6" target="4pyHOXLh5STAHHVh2ZcR-66">
          <mxGeometry width="50" height="50" relative="1" as="geometry">
            <mxPoint x="180" y="690" as="sourcePoint" />
            <mxPoint x="230" y="640" as="targetPoint" />
          </mxGeometry>
        </mxCell>
        <mxCell id="4pyHOXLh5STAHHVh2ZcR-68" value="Book name, number and shelf number" style="text;html=1;strokeColor=none;fillColor=none;align=center;verticalAlign=middle;whiteSpace=wrap;rounded=0;strokeWidth=2;fontSize=14;fontColor=#000000;" vertex="1" parent="1">
          <mxGeometry x="210" y="620" width="290" height="30" as="geometry" />
        </mxCell>
        <mxCell id="4pyHOXLh5STAHHVh2ZcR-69" value="&lt;div align=&quot;left&quot;&gt;09&lt;/div&gt;" style="swimlane;fontStyle=1;align=left;verticalAlign=middle;childLayout=stackLayout;horizontal=1;startSize=29;horizontalStack=0;resizeParent=1;resizeParentMax=0;resizeLast=0;collapsible=0;marginBottom=0;html=1;fontSize=16;strokeWidth=2;fillColor=#fff2cc;strokeColor=#d6b656;" vertex="1" parent="1">
          <mxGeometry x="550" y="770" width="270" height="54" as="geometry" />
        </mxCell>
        <mxCell id="4pyHOXLh5STAHHVh2ZcR-70" value="&lt;font color=&quot;#000000&quot;&gt;Authored book&lt;/font&gt;" style="text;html=1;strokeColor=none;fillColor=none;align=left;verticalAlign=middle;spacingLeft=4;spacingRight=4;overflow=hidden;rotatable=0;points=[[0,0.5],[1,0.5]];portConstraint=eastwest;fontSize=16;fontColor=#0000FF;" vertex="1" parent="4pyHOXLh5STAHHVh2ZcR-69">
          <mxGeometry y="29" width="270" height="25" as="geometry" />
        </mxCell>
        <mxCell id="4pyHOXLh5STAHHVh2ZcR-71" value="" style="endArrow=classic;html=1;rounded=0;fontSize=14;fontColor=#000000;entryX=-0.007;entryY=0.04;entryDx=0;entryDy=0;entryPerimeter=0;" edge="1" parent="1" target="4pyHOXLh5STAHHVh2ZcR-70">
          <mxGeometry width="50" height="50" relative="1" as="geometry">
            <mxPoint x="200" y="800" as="sourcePoint" />
            <mxPoint x="420" y="800" as="targetPoint" />
          </mxGeometry>
        </mxCell>
        <mxCell id="4pyHOXLh5STAHHVh2ZcR-72" value="Book name and author" style="text;html=1;strokeColor=none;fillColor=none;align=center;verticalAlign=middle;whiteSpace=wrap;rounded=0;strokeWidth=2;fontSize=14;fontColor=#000000;" vertex="1" parent="1">
          <mxGeometry x="340" y="769" width="180" height="30" as="geometry" />
        </mxCell>
        <mxCell id="4pyHOXLh5STAHHVh2ZcR-73" value="book information " style="text;html=1;strokeColor=none;fillColor=none;align=center;verticalAlign=middle;whiteSpace=wrap;rounded=0;strokeWidth=2;fontSize=14;fontColor=#000000;" vertex="1" parent="1">
          <mxGeometry x="790" y="850" width="155" height="30" as="geometry" />
        </mxCell>
        <mxCell id="4pyHOXLh5STAHHVh2ZcR-75" value="" style="endArrow=none;html=1;rounded=0;" edge="1" parent="1">
          <mxGeometry width="50" height="50" relative="1" as="geometry">
            <mxPoint x="934" y="-132" as="sourcePoint" />
            <mxPoint x="934" y="-162" as="targetPoint" />
          </mxGeometry>
        </mxCell>
        <mxCell id="4pyHOXLh5STAHHVh2ZcR-76" value="" style="endArrow=none;html=1;rounded=0;" edge="1" parent="1">
          <mxGeometry width="50" height="50" relative="1" as="geometry">
            <mxPoint x="363" y="389" as="sourcePoint" />
            <mxPoint x="363" y="359" as="targetPoint" />
          </mxGeometry>
        </mxCell>
        <mxCell id="4pyHOXLh5STAHHVh2ZcR-77" value="" style="endArrow=none;html=1;rounded=0;" edge="1" parent="1">
          <mxGeometry width="50" height="50" relative="1" as="geometry">
            <mxPoint x="331" y="499" as="sourcePoint" />
            <mxPoint x="331" y="469" as="targetPoint" />
          </mxGeometry>
        </mxCell>
        <mxCell id="4pyHOXLh5STAHHVh2ZcR-78" value="" style="endArrow=none;html=1;rounded=0;" edge="1" parent="1">
          <mxGeometry width="50" height="50" relative="1" as="geometry">
            <mxPoint x="597" y="649" as="sourcePoint" />
            <mxPoint x="597" y="619" as="targetPoint" />
          </mxGeometry>
        </mxCell>
        <mxCell id="4pyHOXLh5STAHHVh2ZcR-79" value="" style="endArrow=none;html=1;rounded=0;" edge="1" parent="1">
          <mxGeometry width="50" height="50" relative="1" as="geometry">
            <mxPoint x="599" y="799" as="sourcePoint" />
            <mxPoint x="599" y="769" as="targetPoint" />
          </mxGeometry>
        </mxCell>
        <mxCell id="4pyHOXLh5STAHHVh2ZcR-80" value="" style="endArrow=none;html=1;rounded=0;" edge="1" parent="1">
          <mxGeometry width="50" height="50" relative="1" as="geometry">
            <mxPoint x="285" y="198" as="sourcePoint" />
            <mxPoint x="285" y="168" as="targetPoint" />
          </mxGeometry>
        </mxCell>
        <mxCell id="4pyHOXLh5STAHHVh2ZcR-81" value="" style="endArrow=none;html=1;rounded=0;" edge="1" parent="1">
          <mxGeometry width="50" height="50" relative="1" as="geometry">
            <mxPoint x="617" y="99" as="sourcePoint" />
            <mxPoint x="617" y="69" as="targetPoint" />
          </mxGeometry>
        </mxCell>
        <mxCell id="4pyHOXLh5STAHHVh2ZcR-82" value="" style="endArrow=none;html=1;rounded=0;" edge="1" parent="1">
          <mxGeometry width="50" height="50" relative="1" as="geometry">
            <mxPoint x="626" y="109" as="sourcePoint" />
            <mxPoint x="626" y="79" as="targetPoint" />
          </mxGeometry>
        </mxCell>
      </root>
    </mxGraphModel>
  </diagram>
</mxfile>
